<svg xmlns="http://www.w3.org/2000/svg" width="102" height="40" fill="none"><path fill="#01BAB3" d="M19.5319 40.0001c-2.5776.0018-5.1291-.516-7.502-1.5225-2.37302-1.0065-4.51873-2.481-6.30895-4.3355C2.05172 30.3487.00048828 25.2777.00048828 20.0001S2.05172 9.65147 5.72095 5.85808C7.51234 4.00513 9.65828 2.5316 12.031 1.52523 14.4037.518867 16.9546.00024414 19.5319.00024414c2.5774 0 5.1283.51862286 7.501 1.52498586 2.3727 1.00637 4.5187 2.4799 6.31 4.33285 3.6693 3.79339 5.7205 8.86442 5.7205 14.14202s-2.0512 10.3486-5.7205 14.142c-1.7901 1.8545-3.9358 3.3291-6.3088 4.3356-2.373 1.0065-4.9245 1.5243-7.5022 1.5224Zm3.7461-10.766v3c.228.047.4601.0708.693.071.6613.0157 1.3206-.0803 1.9499-.284.526-.1871 1.0005-.4954 1.3851-.9.4297-.4661.784-.9965 1.05-1.572.309-.641.635-1.409.969-2.281l4.686-12.527h-3.5311l-2.885 8.344-3.0469-8.344h-3.9251l5.1711 12.5c-.1836.5654-.448 1.1013-.785 1.591-.1242.1541-.283.2767-.4636.3577-.1806.081-.3778.1181-.5755.1083-.2328-.0002-.4649-.024-.6929-.071l.001.007Zm-12.188-3.663c.1673.2685.3642.5174.587.742.2502.2534.5334.4721.842.65.3407.1958.7054.3468 1.085.449.4217.1123.8565.1678 1.293.165.7435.01 1.4814-.1308 2.169-.414.6405-.272 1.2093-.6885 1.662-1.217.4896-.5887.8513-1.2729 1.062-2.009.2604-.9145.3847-1.8623.369-2.813v-.473c.1199-1.6597-.3536-3.308-1.336-4.651-.4964-.536-1.1062-.9543-1.7849-1.2246-.6787-.2702-1.4092-.3855-2.1381-.3374-.6992-.0015-1.3879.1704-2.0043.5004-.6164.3301-1.1413.8078-1.5277 1.3906v-5.6H7.81295v16.543H11.09V25.5711Zm2.955-.992c-.355.0062-.7073-.0617-1.0345-.1995-.3272-.1377-.622-.3423-.8655-.6005-.5491-.6331-.8267-1.4568-.773-2.293v-1.186c-.0283-.3909.026-.7834.1593-1.1519.1334-.3685.3428-.7048.6147-.9871.5151-.479 1.1967-.738 1.8999-.722.3386-.0108.6752.0547.9849.1919.3097.1371.5846.3422.8042.6001.506.7019.7473 1.5602.681 2.423v.473c.0637.913-.183 1.8208-.7 2.576-.2059.2745-.4735.4968-.7811.6488-.3077.152-.6468.2295-.9899.2262v.001Z"/><path fill="#000" fill-opacity=".85" d="M49.7179 28.3001c-1.1343.0996-2.2643-.2345-3.162-.935-.3693-.4267-.6478-.924-.8185-1.4618-.1707-.5378-.2301-1.1047-.1745-1.6662v-5.771h-1.616v-2.539h1.616v-2.77h3.047v2.77h2.955v2.539h-2.955v5.309c-.047.5253.0875 1.0508.381 1.489.1909.172.4163.3011.6613.3787.2449.0777.5036.1019.7587.0713.4613 0 .923-.023 1.385-.069v2.539c-.2927.0306-.5967.0576-.912.081-.3153.0233-.704.035-1.166.035Zm4.27-12.372h2.816v1.8c.1215-.2686.2768-.5207.462-.75.204-.2574.4454-.4829.716-.669.2829-.1954.5893-.3543.912-.473.3526-.1272.7252-.1899 1.1-.185.2508-.0028.5014.0126.75.046.1366.0138.271.0447.4.092v2.7c-.1916-.0728-.3885-.1306-.589-.173-.3156-.061-.6367-.0881-.958-.081-.4046-.0115-.8067.0674-1.177.231-.3091.1416-.5825.3507-.8.612-.2114.261-.3648.5641-.45.889-.0932.3462-.1396.7034-.138 1.062v7.133h-3.047l.003-12.234Zm14.311 12.507c-.8043.0042-1.6037-.1246-2.366-.381-.7248-.2413-1.3897-.6348-1.95-1.154-.5772-.5497-1.0265-1.2195-1.316-1.962-.3402-.8869-.505-1.8314-.485-2.781v-.462c-.0185-.9068.1395-1.8085.465-2.655.2799-.7128.7136-1.355 1.27-1.881.5396-.5007 1.176-.8856 1.87-1.131.7339-.2584 1.507-.3873 2.285-.381.7958-.0565 1.5948.0489 2.3486.31.7539.2611 1.447.6724 2.0374 1.209.5291.596.9341 1.2917 1.1911 2.0462.2571.7544.3611 1.5526.3059 2.3478v1.289h-8.656c.0032.4822.0971.9595.277 1.407.1495.3668.3779.6963.669.965.2769.2482.6035.4347.958.547.3553.1153.7265.174 1.1.174.6114.0361 1.2219-.084 1.774-.349.397-.2289.6997-.5915.854-1.023h2.793c-.0889.5816-.2967 1.1388-.6106 1.6365-.3138.4978-.7269.9255-1.2134 1.2565-1.0757.6778-2.3303 1.0165-3.601.972Zm-.115-10.295c-.3545-.0001-.7075.0463-1.05.138-.33.0845-.64.2337-.912.439-.2745.2161-.4955.4926-.646.808-.1796.3828-.2741.8001-.277 1.223h5.7c-.0007-.4348-.0828-.8655-.242-1.27-.1289-.3156-.3352-.5935-.6-.808-.2613-.2035-.5652-.3454-.889-.415-.3559-.0787-.7195-.1173-1.084-.115Zm7.963-2.216h2.817v1.8c.3375-.6009.8273-1.1024 1.42-1.454.8044-.4533 1.7208-.6693 2.643-.623.6092-.0485 1.2218.0334 1.7969.2404.5751.2069 1.0994.534 1.5381.9596.7913.9733 1.1843 2.2104 1.1 3.462v7.848h-3.051v-7.157c.0543-.7358-.1448-1.468-.564-2.075-.2486-.2527-.5509-.4461-.8845-.5659-.3337-.1198-.69-.1629-1.0425-.1261-.427-.0126-.8519.0661-1.246.231-.3215.1413-.609.35-.843.612-.2232.2538-.3887.553-.485.877-.1014.3407-.152.6945-.15 1.05v7.156h-3.049v-12.235Zm18.582 12.511c-.7089.0346-1.4167-.087-2.0734-.3562-.6566-.2692-1.2461-.6795-1.7266-1.2018-1.0319-1.3473-1.5304-3.028-1.4-4.72v-.462c-.1136-1.6238.3892-3.2306 1.408-4.5.4811-.5171 1.0689-.9233 1.7227-1.1904.6537-.2672 1.3578-.3888 2.0633-.3566.7681-.0145 1.5266.1723 2.2.542.6221.3466 1.1553.8326 1.558 1.42v-5.61h3.0471v16.158h-2.8291v-1.8c-.3527.6-.8524 1.1004-1.452 1.454-.7634.442-1.6366.6581-2.518.623Zm.718-2.585c.8101.0335 1.6006-.254 2.2-.8.3016-.3253.5323-.7097.6774-1.1289s.2015-.864.1656-1.3061v-1.382c.0312-.4159-.0303-.8336-.18-1.2229-.1498-.3892-.3841-.7404-.686-1.0281-.609-.5115-1.3862-.7788-2.181-.75-.3812-.0125-.7605.0586-1.1113.2082-.3509.1496-.6648.3741-.9197.6578-.5767.7384-.8567 1.6657-.785 2.6v.462c-.0779.9944.2093 1.9831.808 2.781.247.2912.5557.5238.9036.681.348.1573.7266.2351 1.1084.228Z"/></svg>